<?xml version="1.0" encoding="UTF-8"?>
<svg xmlns="http://www.w3.org/2000/svg" viewBox="0 0 201.31 223.47">
  <defs>
    <style>
      .cls-1 {
        mix-blend-mode: lighten;
      }

      .cls-2 {
        isolation: isolate;
      }

      .cls-3 {
        fill: #5dc5bf;
      }

      .cls-4 {
        fill: #e98dbb;
      }
    </style>
  </defs>
  <g class="cls-2">
    <g id="Layer_2" data-name="Layer 2">
      <g id="Layer_3" data-name="Layer 3">
        <path class="cls-4" d="M189.82,184.69c-6.21-3.44-14.64-7.79-15.29-3.66-.65,4.12-9.05,10.76-17.74,10.57-8.7-.2-16.35-10.55-20.3-13.84-3.95-3.29-11.62-13.27-11.75-17.07-.13-3.8,5.15-9.13,7.28-12.78,2.14-3.65,8.24-10.06,10.88-9.89s9.33,2.13,12.55,5c3.22,2.86,6.21,9.12,9.96,9.75,3.75.63,9.98-1.99,14.61-3.2,4.63-1.21,16.09,2.96,16.22,1.07s-14.39-11.56-21.65-16.21c-7.27-4.65-9.41-12.36-8.71-17.24.7-4.88,9.58-7.32,13.87-9.31,4.3-1.99,4.05-3.9-.1-4.17s-13.22-.5-14.46-4.74c-1.23-4.25,13.24-11.24,19.5-19.92,6.26-8.68,8.66-39.2,3.35-50.54-5.31-11.34-15.55-22.62-40.11-23.49-24.56-.87-36.58,8.94-39.39,11.41-2.81,2.47-.83,6.76-2.41,7.79-1.58,1.03-3.8.13-6.41-.42s-14.21-8.52-23.81-12.18c-9.61-3.67-23.16-4.94-34.32-2.27-11.16,2.67-25.38,11.39-26.66,25.13-.55,5.84,9.56,15.78,14.84,16.13s11.16-8.35,16.41-12.55c5.25-4.2,15.71-9.19,25.51-8.54s20.24,8.92,24.12,19.02c3.88,10.1.71,23.53-2.4,30.52-3.11,6.99-12.64,13.56-20.81,16.8s-19.41,1.37-25.9-3.61c-6.49-4.97-10.72-15.48-13.13-19.05-2.42-3.57-6.89-4.62-10.91-1.1-4.02,3.52-3.11,18.35,3.13,27.1,6.24,8.75,11.52,14.78,11.2,19.68s-4.57,6.14-13.97,10.82c-9.4,4.68-16.22,24.3-17.09,37.5-.87,13.2,7.99,25.53,14.94,35.08,6.94,9.55,22.13,20.4,33.07,21.13,10.94.72,24.23-5.59,32.1-10s14.4-11.55,16.5-16.33,4.42-13.72,7.06-13.55,9.66,14.28,13.79,20.61c4.13,6.33,19.39,16.06,31.08,16.83,11.69.77,21.64-6.52,29.11-10.57,7.46-4.05,17.34-10.22,17.72-15.86s-5.26-6.42-11.47-9.86ZM144.08,108.93c-1.21,1.06-5.05,7.58-8.08,7.59s-7.46-7.48-9.5-11.03c-2.04-3.54-4.74-8.27-2.56-12.67,2.65-5.35,6.6-2.59,10.73-1.94,4.12.65,11.77,5.32,12.27,9.15.5,3.82-1.66,7.84-2.86,8.9ZM116.9,44.63c2.04-2.14,13.88-3.63,22.75-6.07,8.87-2.44,18.33-2.2,25.27,1.67,6.94,3.87,5.69,17.04,2.9,24.81s-12.36,9.41-21.04,8.83-15.09-6.68-20.89-10.47c-5.8-3.79-6.42-.42-10.19-.67s-2.35-14.38,1.2-18.1ZM88.19,174.93c-7.74,8.2-12.94,18.08-22.74,17.43s-19.46-9.24-23.74-19c-4.28-9.75,1.07-21.9,8.33-28.61,7.26-6.72,14.28-6.63,21.15-6.18s13.59,2.04,17.49,6.08c3.9,4.05,7.9,6.58,10.59,11.69,1.59,3.01-3.34,10.38-11.08,18.58ZM125.33,128.9c-.6,3.37-5.13,3.07-8.34,5.89-3.22,2.82-6.48,6.39-9.13,6.21s-1.6-4.27-5.45-9.07c-3.85-4.8-8.85-3.62-13.38-3.92s-6.99-3.11-6.74-6.89,7.74-8.2,13.29-12c5.55-3.8,11.5-7.74,11.5-7.74,3.66,1.97,5.05,9.59,9.52,16.33,4.48,6.74,9.33,7.81,8.73,11.18Z"/>
        <g class="cls-1">
          <path class="cls-3" d="M183.96,179.72c-6.21-3.44-14.64-7.79-15.29-3.66-.65,4.12-9.05,10.76-17.74,10.57-8.7-.2-16.35-10.55-20.3-13.84-3.95-3.29-11.62-13.27-11.75-17.07-.13-3.8,5.15-9.13,7.28-12.78,2.14-3.65,8.24-10.06,10.88-9.89s9.33,2.13,12.55,5c3.22,2.86,6.21,9.12,9.96,9.75,3.75.63,9.98-1.99,14.61-3.2,4.63-1.21,16.09,2.96,16.22,1.07s-14.39-11.56-21.65-16.21c-7.27-4.65-9.41-12.36-8.71-17.24.7-4.88,9.58-7.32,13.87-9.31,4.3-1.99,4.05-3.9-.1-4.17s-13.22-.5-14.46-4.74c-1.23-4.25,13.24-11.24,19.5-19.92,6.26-8.68,8.66-39.2,3.35-50.54C176.87,12.21,166.63.92,142.07.05c-24.56-.87-36.58,8.94-39.39,11.41-2.81,2.47-.83,6.76-2.41,7.79-1.58,1.03-3.8.13-6.41-.42s-14.21-8.52-23.81-12.18c-9.61-3.67-23.16-4.94-34.32-2.27-11.16,2.67-25.38,11.39-26.66,25.13-.55,5.84,9.56,15.78,14.84,16.13s11.16-8.35,16.41-12.55c5.25-4.2,15.71-9.19,25.51-8.54s20.24,8.92,24.12,19.02c3.88,10.1.71,23.53-2.4,30.52-3.11,6.99-12.64,13.56-20.81,16.8-8.17,3.25-19.41,1.37-25.9-3.61-6.49-4.97-10.72-15.48-13.13-19.05-2.42-3.57-6.89-4.62-10.91-1.1-4.02,3.52-3.11,18.35,3.13,27.1,6.24,8.75,11.52,14.78,11.2,19.68s-4.57,6.14-13.97,10.82C7.75,129.42.93,149.04.06,162.24c-.87,13.2,7.99,25.53,14.94,35.08,6.94,9.55,22.13,20.4,33.07,21.13,10.94.72,24.23-5.59,32.1-10s14.4-11.55,16.5-16.33,4.42-13.72,7.06-13.55,9.66,14.28,13.79,20.61c4.13,6.33,19.39,16.06,31.08,16.83,11.69.77,21.64-6.52,29.11-10.57,7.46-4.05,17.34-10.22,17.72-15.86s-5.26-6.42-11.47-9.86ZM138.22,103.96c-1.21,1.06-5.05,7.58-8.08,7.59s-7.46-7.48-9.5-11.03c-2.04-3.54-4.74-8.27-2.56-12.67,2.65-5.35,6.6-2.59,10.73-1.94,4.12.65,11.77,5.32,12.27,9.15.5,3.82-1.66,7.84-2.86,8.9ZM111.04,39.67c2.04-2.14,13.88-3.63,22.75-6.07,8.87-2.44,18.33-2.2,25.27,1.67,6.94,3.87,5.69,17.04,2.9,24.81s-12.36,9.41-21.04,8.83-15.09-6.68-20.89-10.47c-5.8-3.79-6.42-.42-10.19-.67s-2.35-14.38,1.2-18.1ZM82.34,169.96c-7.74,8.2-12.94,18.08-22.74,17.43-9.81-.65-19.46-9.24-23.74-19-4.28-9.75,1.07-21.9,8.33-28.61,7.26-6.72,14.28-6.63,21.15-6.18s13.59,2.04,17.49,6.08c3.9,4.05,7.9,6.58,10.59,11.69,1.59,3.01-3.34,10.38-11.08,18.58ZM119.47,123.93c-.6,3.37-5.13,3.07-8.34,5.89-3.22,2.82-6.48,6.39-9.13,6.21s-1.6-4.27-5.45-9.07c-3.85-4.8-8.85-3.62-13.38-3.92s-6.99-3.11-6.74-6.89,7.74-8.2,13.29-12c5.55-3.8,11.5-7.74,11.5-7.74,3.66,1.97,5.05,9.59,9.52,16.33,4.48,6.74,9.33,7.81,8.73,11.18Z"/>
        </g>
      </g>
    </g>
  </g>
</svg>