<?xml version="1.0" encoding="UTF-8"?>
<svg xmlns="http://www.w3.org/2000/svg" version="1.1" viewBox="0 0 201.3 223.5">
  <!-- Generator: Adobe Illustrator 29.8.1, SVG Export Plug-In . SVG Version: 2.1.1 Build 2)  -->
  <defs>
    <style>
      .st0 {
        fill: #e98dbb;
      }

      .st0, .st1 {
        mix-blend-mode: multiply;
      }

      .st2 {
        isolation: isolate;
      }

      .st1 {
        fill: #5dc5bf;
      }
    </style>
  </defs>
  <g class="st2">
    <g id="Layer_1">
      <path class="st0" d="M189.8,184.7c-6.2-3.4-14.6-7.8-15.3-3.7-.6,4.1-9.1,10.8-17.7,10.6-8.7-.2-16.4-10.6-20.3-13.8s-11.6-13.3-11.8-17.1,5.1-9.1,7.3-12.8c2.1-3.6,8.2-10.1,10.9-9.9s9.3,2.1,12.6,5c3.2,2.9,6.2,9.1,10,9.8s10-2,14.6-3.2c4.6-1.2,16.1,3,16.2,1.1s-14.4-11.6-21.6-16.2c-7.3-4.6-9.4-12.4-8.7-17.2s9.6-7.3,13.9-9.3c4.3-2,4.1-3.9-.1-4.2s-13.2-.5-14.5-4.7c-1.2-4.2,13.2-11.2,19.5-19.9s8.7-39.2,3.4-50.5-15.6-22.6-40.1-23.5c-24.6-.9-36.6,8.9-39.4,11.4-2.8,2.5-.8,6.8-2.4,7.8-1.6,1-3.8.1-6.4-.4s-14.2-8.5-23.8-12.2c-9.6-3.7-23.2-4.9-34.3-2.3-11.2,2.7-25.4,11.4-26.7,25.1-.6,5.8,9.6,15.8,14.8,16.1s11.2-8.3,16.4-12.5,15.7-9.2,25.5-8.5c9.8.6,20.2,8.9,24.1,19,3.9,10.1.7,23.5-2.4,30.5s-12.6,13.6-20.8,16.8-19.4,1.4-25.9-3.6c-6.5-5-10.7-15.5-13.1-19.1-2.4-3.6-6.9-4.6-10.9-1.1-4,3.5-3.1,18.3,3.1,27.1s11.5,14.8,11.2,19.7-4.6,6.1-14,10.8c-9.4,4.7-16.2,24.3-17.1,37.5-.9,13.2,8,25.5,14.9,35.1,6.9,9.6,22.1,20.4,33.1,21.1,10.9.7,24.2-5.6,32.1-10s14.4-11.6,16.5-16.3,4.4-13.7,7.1-13.6,9.7,14.3,13.8,20.6c4.1,6.3,19.4,16.1,31.1,16.8s21.6-6.5,29.1-10.6c7.5-4.1,17.3-10.2,17.7-15.9s-5.3-6.4-11.5-9.9h0ZM144.1,108.9c-1.2,1.1-5.1,7.6-8.1,7.6s-7.5-7.5-9.5-11c-2-3.5-4.7-8.3-2.6-12.7,2.7-5.3,6.6-2.6,10.7-1.9,4.1.7,11.8,5.3,12.3,9.2.5,3.8-1.7,7.8-2.9,8.9ZM116.9,44.6c2-2.1,13.9-3.6,22.7-6.1s18.3-2.2,25.3,1.7,5.7,17,2.9,24.8c-2.8,7.8-12.4,9.4-21,8.8s-15.1-6.7-20.9-10.5-6.4-.4-10.2-.7-2.3-14.4,1.2-18.1ZM88.2,174.9c-7.7,8.2-12.9,18.1-22.7,17.4s-19.5-9.2-23.7-19c-4.3-9.8,1.1-21.9,8.3-28.6,7.3-6.7,14.3-6.6,21.2-6.2s13.6,2,17.5,6.1c3.9,4.1,7.9,6.6,10.6,11.7,1.6,3-3.3,10.4-11.1,18.6h0ZM125.3,128.9c-.6,3.4-5.1,3.1-8.3,5.9-3.2,2.8-6.5,6.4-9.1,6.2s-1.6-4.3-5.4-9.1-8.8-3.6-13.4-3.9-7-3.1-6.7-6.9,7.7-8.2,13.3-12,11.5-7.7,11.5-7.7c3.7,2,5.1,9.6,9.5,16.3,4.5,6.7,9.3,7.8,8.7,11.2h0Z"/>
      <path class="st1" d="M184,179.7c-6.2-3.4-14.6-7.8-15.3-3.7-.6,4.1-9.1,10.8-17.7,10.6-8.7-.2-16.4-10.6-20.3-13.8s-11.6-13.3-11.8-17.1,5.2-9.1,7.3-12.8c2.1-3.6,8.2-10.1,10.9-9.9s9.3,2.1,12.6,5c3.2,2.9,6.2,9.1,10,9.8s10-2,14.6-3.2c4.6-1.2,16.1,3,16.2,1.1s-14.4-11.6-21.6-16.2c-7.3-4.7-9.4-12.4-8.7-17.2s9.6-7.3,13.9-9.3c4.3-2,4.1-3.9-.1-4.2s-13.2-.5-14.5-4.7c-1.2-4.2,13.2-11.2,19.5-19.9s8.7-39.2,3.4-50.5C176.9,12.2,166.6.9,142.1,0c-24.6-.9-36.6,8.9-39.4,11.4s-.8,6.8-2.4,7.8c-1.6,1-3.8.1-6.4-.4s-14.2-8.5-23.8-12.2c-9.6-3.7-23.2-4.9-34.3-2.3S10.4,15.8,9.1,29.5c-.6,5.8,9.6,15.8,14.8,16.1s11.2-8.3,16.4-12.5,15.7-9.2,25.5-8.5c9.8.6,20.2,8.9,24.1,19,3.9,10.1.7,23.5-2.4,30.5s-12.6,13.6-20.8,16.8c-8.2,3.2-19.4,1.4-25.9-3.6-6.5-5-10.7-15.5-13.1-19.1-2.4-3.6-6.9-4.6-10.9-1.1-4,3.5-3.1,18.3,3.1,27.1,6.2,8.8,11.5,14.8,11.2,19.7s-4.6,6.1-14,10.8C7.8,129.4.9,149,0,162.2c-.9,13.2,8,25.5,14.9,35.1,6.9,9.6,22.1,20.4,33.1,21.1,10.9.7,24.2-5.6,32.1-10s14.4-11.6,16.5-16.3,4.4-13.7,7.1-13.6,9.7,14.3,13.8,20.6,19.4,16.1,31.1,16.8c11.7.8,21.6-6.5,29.1-10.6,7.5-4.1,17.3-10.2,17.7-15.9s-5.3-6.4-11.5-9.9h0ZM138.2,104c-1.2,1.1-5.1,7.6-8.1,7.6s-7.5-7.5-9.5-11c-2-3.5-4.7-8.3-2.6-12.7,2.7-5.3,6.6-2.6,10.7-1.9,4.1.7,11.8,5.3,12.3,9.2.5,3.8-1.7,7.8-2.9,8.9ZM111,39.7c2-2.1,13.9-3.6,22.8-6.1,8.9-2.4,18.3-2.2,25.3,1.7s5.7,17,2.9,24.8-12.4,9.4-21,8.8-15.1-6.7-20.9-10.5-6.4-.4-10.2-.7-2.3-14.4,1.2-18.1ZM82.3,170c-7.7,8.2-12.9,18.1-22.7,17.4-9.8-.6-19.5-9.2-23.7-19-4.3-9.8,1.1-21.9,8.3-28.6,7.3-6.7,14.3-6.6,21.2-6.2s13.6,2,17.5,6.1c3.9,4.1,7.9,6.6,10.6,11.7,1.6,3-3.3,10.4-11.1,18.6h0ZM119.5,123.9c-.6,3.4-5.1,3.1-8.3,5.9-3.2,2.8-6.5,6.4-9.1,6.2s-1.6-4.3-5.4-9.1c-3.8-4.8-8.8-3.6-13.4-3.9s-7-3.1-6.7-6.9,7.7-8.2,13.3-12,11.5-7.7,11.5-7.7c3.7,2,5.1,9.6,9.5,16.3,4.5,6.7,9.3,7.8,8.7,11.2h0Z"/>
    </g>
  </g>
</svg>