<?xml version="1.0" encoding="UTF-8"?>
<svg xmlns="http://www.w3.org/2000/svg" viewBox="0 0 1833 1280">
  <defs>
    <style>
      .cls-1 {
        mix-blend-mode: lighten;
      }

      .cls-2 {
        stroke-width: 24px;
      }

      .cls-2, .cls-3, .cls-4 {
        fill: none;
        stroke: #231f20;
        stroke-miterlimit: 10;
      }

      .cls-5 {
        fill: #231f20;
      }

      .cls-3 {
        stroke-width: 5px;
      }

      .cls-6 {
        isolation: isolate;
      }

      .cls-4 {
        stroke-width: 30px;
      }

      .cls-7 {
        fill: #5dc5bf;
      }

      .cls-8 {
        fill: #e98dbb;
      }
    </style>
  </defs>
  <g class="cls-6">
    <g id="Layer_2" data-name="Layer 2">
      <path class="cls-4" d="M758.85,793.64c0-2.25.14-4.46.41-6.63,3.26-25.99,25.44-46.09,52.31-46.09,29.12,0,52.72,23.6,52.72,52.72s-23.6,52.72-52.72,52.72c-19.1,0-35.83-10.16-45.08-25.36"/>
      <circle class="cls-4" cx="917.02" cy="793.64" r="52.72"/>
      <circle class="cls-4" cx="811.57" cy="927.91" r="52.72"/>
      <path class="cls-4" d="M965.6,948.43c-8,18.92-26.74,32.2-48.58,32.2-29.12,0-52.72-23.6-52.72-52.72s23.6-52.72,52.72-52.72c20.89,0,52.72-2.91,62.92-14.81"/>
      <path class="cls-4" d="M977.44,913.04c-21.31,0-40.97-13.5-52.62-24.85s-23.85-41.82-23.85-41.82"/>
      <g>
        <path class="cls-2" d="M1032.53,785.39c.44-2.2,1.01-4.34,1.71-6.42,8.3-24.84,34-40.2,60.34-34.92,28.55,5.72,47.06,33.5,41.34,62.05-5.72,28.55-33.5,47.06-62.05,41.34-18.73-3.75-33.13-16.99-39.22-33.72"/>
        <circle class="cls-2" cx="1189.67" cy="795.74" r="52.72"/>
        <circle class="cls-2" cx="1084.22" cy="925.01" r="52.72"/>
        <path class="cls-2" d="M1238.24,945.53c-8,18.92-26.74,32.2-48.58,32.2-29.12,0-52.72-23.6-52.72-52.72s23.6-52.72,52.72-52.72c15.89,0,28.69,8.7,41.41,4.54,13.87-4.54,18.4-20.41,18.4-20.41"/>
        <path class="cls-2" d="M1250.08,919.06c-21.31,0-40.97-17.42-52.62-28.77s-23.85-41.82-23.85-41.82"/>
      </g>
      <path class="cls-3" d="M1254.32,1132.64l-15.72-13.47c-1.93,2.25-10.76,5.26-25.26,6.26,22.21-5.02,38.48-25.88,36.22-50.05-2.09-22.34-20.15-40.22-42.51-42.09-16.3-1.37-31.05,5.69-40.4,17.28-8.57-10.63-21.69-17.45-36.38-17.45-23.51,0-43.45,17.57-46.37,40.87-.24,1.93-.37,3.9-.37,5.86h20.7c0-1.1.07-2.21.2-3.29,1.81-14.39,15.28-24.85,30.2-22.38,11.01,1.82,19.74,10.7,21.37,21.74,2.37,16.09-10.1,29.96-25.74,29.96-9.17,0-17.49-4.68-22.26-12.53l-17.69,10.76c7.17,11.78,18.81,19.59,32.06,21.82.3.05.29.47,0,.53-22.65,3.87-39.79,24.09-38.8,48.04,1,23.95,20.36,43.49,44.3,44.69,15.65.78,29.74-6.18,38.77-17.39,8.57,10.63,21.69,17.45,36.38,17.45,18.82,0,35.73-11.2,43.06-28.54l-19.07-8.07c-4.46,10.54-15.26,17.01-26.88,15.74s-21.77-11.08-23-23.16c-1.36-13.35,7.44-24.93,19.58-27.97,1.45,1.98,2.95,3.78,4.47,5.26,6.2,6.04,22.86,20.09,43.54,20.09v-20.7c-7.41,0-14.45-3.3-19.84-6.83,12.02-1.73,23.36-5.34,29.43-12.43ZM1200.91,1053.91c16.02-1.28,29.35,12.05,28.07,28.07-1,12.61-11.22,22.82-23.83,23.83-16.02,1.28-29.35-12.05-28.07-28.07,1-12.61,11.22-22.82,23.83-23.83ZM1132.39,1198.46c-16.02,1.28-29.35-12.05-28.07-28.07,1.01-12.61,11.22-22.82,23.83-23.82,16.02-1.27,29.34,12.05,28.07,28.07-1,12.61-11.22,22.82-23.82,23.83ZM1164.52,1140.77c-6.41-6.91-14.87-11.88-24.4-13.93-.7-.15-.7-1.16,0-1.31,9.77-2.11,18.41-7.27,24.87-14.45.89-.99,2.42-.99,3.31,0,4.16,4.62,9.21,8.4,14.9,11.08.69,1.62,1.72,3.99,3.03,6.76-6.7,2.59-12.65,6.68-17.45,11.85-1.16,1.25-3.1,1.25-4.25,0Z"/>
    </g>
    <g id="Layer_3" data-name="Layer 3">
      <path class="cls-5" d="M954.07,646.2c-6.43-3.02-15.12-6.8-15.5-2.65-.38,4.16-8.31,11.34-17.01,11.72-8.69.38-17.01-9.45-21.17-12.47s-12.47-12.47-12.85-16.25c-.38-3.78,4.54-9.45,6.43-13.23,1.89-3.78,7.56-10.58,10.2-10.58s9.45,1.51,12.85,4.16c3.4,2.65,6.8,8.69,10.58,9.07,3.78.38,9.83-2.65,14.36-4.16,4.54-1.51,16.25,1.89,16.25,0s-15.12-10.58-22.68-14.74c-7.56-4.16-10.2-11.72-9.83-16.63.38-4.91,9.07-7.94,13.23-10.2,4.16-2.27,3.78-4.16-.38-4.16s-13.23.38-14.74-3.78c-1.51-4.16,12.47-12.09,18.14-21.17,5.67-9.07,6.05-39.69,0-50.65s-17.01-21.54-41.57-20.79-35.91,11.34-38.55,13.98c-2.65,2.65-.38,6.8-1.89,7.94-1.51,1.13-3.78.38-6.43,0s-14.74-7.56-24.57-10.58c-9.83-3.02-23.43-3.4-34.39,0-10.96,3.4-24.57,13.05-24.94,26.83-.16,5.87,10.58,15.12,15.87,15.12s10.58-9.07,15.55-13.61c4.96-4.54,15.07-10.2,24.89-10.2s20.79,7.56,25.32,17.39c4.54,9.83,2.27,23.43-.38,30.61-2.65,7.18-11.72,14.36-19.65,18.14s-19.28,2.65-26.08-1.89c-6.8-4.54-11.72-14.74-14.36-18.14-2.65-3.4-7.18-4.16-10.96-.38-3.78,3.78-1.89,18.52,4.91,26.83,6.8,8.32,12.47,13.98,12.47,18.9s-4.16,6.43-13.23,11.72-14.58,25.32-14.58,38.55,9.66,24.94,17.22,34.02c7.56,9.07,23.43,18.9,34.39,18.9s23.81-7.18,31.37-12.09,13.61-12.47,15.39-17.39,3.51-13.98,6.15-13.98,10.58,13.61,15.12,19.65c4.54,6.05,20.41,14.74,32.13,14.74s21.17-7.94,28.35-12.47c7.18-4.54,16.63-11.34,16.63-17s-5.67-6.06-12.09-9.08ZM903.42,573.64c-1.13,1.13-4.54,7.9-7.56,8.11s-7.94-6.97-10.2-10.37c-2.27-3.4-5.28-7.94-3.39-12.47,2.29-5.52,6.42-3.02,10.57-2.65,4.16.38,12.09,4.54,12.85,8.31.76,3.78-1.13,7.94-2.27,9.07ZM872.05,511.27c1.89-2.27,13.61-4.54,22.3-7.56s18.14-3.4,25.32,0c7.18,3.4,6.8,16.63,4.54,24.57s-11.72,10.2-20.41,10.2-15.5-5.67-21.54-9.07c-6.04-3.4-6.43,0-10.21,0s-3.29-14.19,0-18.14ZM852.02,643.18c-7.18,8.69-11.72,18.9-21.54,18.9s-20.03-7.94-24.94-17.39c-4.91-9.45-.38-21.92,6.43-29.1,6.8-7.18,13.81-7.56,20.7-7.56s13.69,1.13,17.85,4.91c4.16,3.78,8.31,6.05,11.34,10.96,1.78,2.9-2.65,10.58-9.83,19.28ZM886.03,594.8c-.38,3.4-4.91,3.4-7.94,6.43s-6.05,6.8-8.7,6.8-1.88-4.16-6.04-8.69c-4.16-4.54-9.07-3.02-13.61-3.02s-7.18-2.65-7.18-6.43,7.18-8.69,12.47-12.85c5.29-4.16,10.96-8.48,10.96-8.48,3.78,1.72,5.67,9.24,10.58,15.66,4.91,6.43,9.83,7.18,9.45,10.58Z"/>
      <path class="cls-8" d="M1221.42,651.84c-6.21-3.44-14.64-7.79-15.29-3.66-.65,4.12-9.05,10.76-17.74,10.57-8.7-.2-16.35-10.55-20.3-13.84-3.95-3.29-11.62-13.27-11.75-17.07-.13-3.8,5.15-9.13,7.28-12.78,2.14-3.65,8.24-10.06,10.88-9.89s9.33,2.13,12.55,5c3.22,2.86,6.21,9.12,9.96,9.75,3.75.63,9.98-1.99,14.61-3.2,4.63-1.21,16.09,2.96,16.22,1.07s-14.39-11.56-21.65-16.21c-7.27-4.65-9.41-12.36-8.71-17.24.7-4.88,9.58-7.32,13.87-9.31,4.3-1.99,4.05-3.9-.1-4.17s-13.22-.5-14.46-4.74c-1.23-4.25,13.24-11.24,19.5-19.92,6.26-8.68,8.66-39.2,3.35-50.54-5.31-11.34-15.55-22.62-40.11-23.49-24.56-.87-36.58,8.94-39.39,11.41-2.81,2.47-.83,6.76-2.41,7.79-1.58,1.03-3.8.13-6.41-.42s-14.21-8.52-23.81-12.18c-9.61-3.67-23.16-4.94-34.32-2.27-11.16,2.67-25.38,11.39-26.66,25.13-.55,5.84,9.56,15.78,14.84,16.13s11.16-8.35,16.41-12.55c5.25-4.2,15.71-9.19,25.51-8.54s20.24,8.92,24.12,19.02c3.88,10.1.71,23.53-2.4,30.52-3.11,6.99-12.64,13.56-20.81,16.8s-19.41,1.37-25.9-3.61c-6.49-4.97-10.72-15.48-13.13-19.05-2.42-3.57-6.89-4.62-10.91-1.1-4.02,3.52-3.11,18.35,3.13,27.1,6.24,8.75,11.52,14.78,11.2,19.68s-4.57,6.14-13.97,10.82c-9.4,4.68-16.22,24.3-17.09,37.5-.87,13.2,7.99,25.53,14.94,35.08,6.94,9.55,22.13,20.4,33.07,21.13,10.94.72,24.23-5.59,32.1-10s14.4-11.55,16.5-16.33,4.42-13.72,7.06-13.55,9.66,14.28,13.79,20.61c4.13,6.33,19.39,16.06,31.08,16.83,11.69.77,21.64-6.52,29.11-10.57,7.46-4.05,17.34-10.22,17.72-15.86s-5.26-6.42-11.47-9.86ZM1175.68,576.08c-1.21,1.06-5.05,7.58-8.08,7.59s-7.46-7.48-9.5-11.03c-2.04-3.54-4.74-8.27-2.56-12.67,2.65-5.35,6.6-2.59,10.73-1.94,4.12.65,11.77,5.32,12.27,9.15.5,3.82-1.66,7.84-2.86,8.9ZM1148.5,511.79c2.04-2.14,13.88-3.63,22.75-6.07,8.87-2.44,18.33-2.2,25.27,1.67,6.94,3.87,5.69,17.04,2.9,24.81s-12.36,9.41-21.04,8.83-15.09-6.68-20.89-10.47c-5.8-3.79-6.42-.42-10.19-.67s-2.35-14.38,1.2-18.1ZM1119.8,642.08c-7.74,8.2-12.94,18.08-22.74,17.43s-19.46-9.24-23.74-19c-4.28-9.75,1.07-21.9,8.33-28.61,7.26-6.72,14.28-6.63,21.15-6.18s13.59,2.04,17.49,6.08c3.9,4.05,7.9,6.58,10.59,11.69,1.59,3.01-3.34,10.38-11.08,18.58ZM1156.94,596.05c-.6,3.37-5.13,3.07-8.34,5.89-3.22,2.82-6.48,6.39-9.13,6.21s-1.6-4.27-5.45-9.07c-3.85-4.8-8.85-3.62-13.38-3.92s-6.99-3.11-6.74-6.89,7.74-8.2,13.29-12c5.55-3.8,11.5-7.74,11.5-7.74,3.66,1.97,5.05,9.59,9.52,16.33,4.48,6.74,9.33,7.81,8.73,11.18Z"/>
      <g class="cls-1">
        <path class="cls-7" d="M1215.57,646.87c-6.21-3.44-14.64-7.79-15.29-3.66-.65,4.12-9.05,10.76-17.74,10.57-8.7-.2-16.35-10.55-20.3-13.84-3.95-3.29-11.62-13.27-11.75-17.07-.13-3.8,5.15-9.13,7.28-12.78,2.14-3.65,8.24-10.06,10.88-9.89s9.33,2.13,12.55,5c3.22,2.86,6.21,9.12,9.96,9.75,3.75.63,9.98-1.99,14.61-3.2,4.63-1.21,16.09,2.96,16.22,1.07s-14.39-11.56-21.65-16.21c-7.27-4.65-9.41-12.36-8.71-17.24.7-4.88,9.58-7.32,13.87-9.31,4.3-1.99,4.05-3.9-.1-4.17s-13.22-.5-14.46-4.74c-1.23-4.25,13.24-11.24,19.5-19.92,6.26-8.68,8.66-39.2,3.35-50.54-5.31-11.34-15.55-22.62-40.11-23.49-24.56-.87-36.58,8.94-39.39,11.41-2.81,2.47-.83,6.76-2.41,7.79-1.58,1.03-3.8.13-6.41-.42s-14.21-8.52-23.81-12.18c-9.61-3.67-23.16-4.94-34.32-2.27-11.16,2.67-25.38,11.39-26.66,25.13-.55,5.84,9.56,15.78,14.84,16.13s11.16-8.35,16.41-12.55c5.25-4.2,15.71-9.19,25.51-8.54s20.24,8.92,24.12,19.02c3.88,10.1.71,23.53-2.4,30.52-3.11,6.99-12.64,13.56-20.81,16.8-8.17,3.25-19.41,1.37-25.9-3.61-6.49-4.97-10.72-15.48-13.13-19.05-2.42-3.57-6.89-4.62-10.91-1.1-4.02,3.52-3.11,18.35,3.13,27.1,6.24,8.75,11.52,14.78,11.2,19.68s-4.57,6.14-13.97,10.82c-9.4,4.68-16.22,24.3-17.09,37.5-.87,13.2,7.99,25.53,14.94,35.08,6.94,9.55,22.13,20.4,33.07,21.13,10.94.72,24.23-5.59,32.1-10s14.4-11.55,16.5-16.33,4.42-13.72,7.06-13.55,9.66,14.28,13.79,20.61c4.13,6.33,19.39,16.06,31.08,16.83,11.69.77,21.64-6.52,29.11-10.57,7.46-4.05,17.34-10.22,17.72-15.86s-5.26-6.42-11.47-9.86ZM1169.82,571.12c-1.21,1.06-5.05,7.58-8.08,7.59s-7.46-7.48-9.5-11.03c-2.04-3.54-4.74-8.27-2.56-12.67,2.65-5.35,6.6-2.59,10.73-1.94,4.12.65,11.77,5.32,12.27,9.15.5,3.82-1.66,7.84-2.86,8.9ZM1142.64,506.82c2.04-2.14,13.88-3.63,22.75-6.07,8.87-2.44,18.33-2.2,25.27,1.67,6.94,3.87,5.69,17.04,2.9,24.81s-12.36,9.41-21.04,8.83-15.09-6.68-20.89-10.47c-5.8-3.79-6.42-.42-10.19-.67s-2.35-14.38,1.2-18.1ZM1113.94,637.11c-7.74,8.2-12.94,18.08-22.74,17.43-9.81-.65-19.46-9.24-23.74-19-4.28-9.75,1.07-21.9,8.33-28.61,7.26-6.72,14.28-6.63,21.15-6.18s13.59,2.04,17.49,6.08c3.9,4.05,7.9,6.58,10.59,11.69,1.59,3.01-3.34,10.38-11.08,18.58ZM1151.08,591.09c-.6,3.37-5.13,3.07-8.34,5.89-3.22,2.82-6.48,6.39-9.13,6.21s-1.6-4.27-5.45-9.07c-3.85-4.8-8.85-3.62-13.38-3.92s-6.99-3.11-6.74-6.89,7.74-8.2,13.29-12c5.55-3.8,11.5-7.74,11.5-7.74,3.66,1.97,5.05,9.59,9.52,16.33,4.48,6.74,9.33,7.81,8.73,11.18Z"/>
      </g>
    </g>
  </g>
</svg>